<?xml version="1.0" encoding="UTF-8"?><svg version="1.1" viewBox="0 0 172 172" xmlns="http://www.w3.org/2000/svg"><g font-family="none" font-size="none" font-weight="none" stroke-dasharray="" stroke-miterlimit="10" text-anchor="none" style="mix-blend-mode:normal"><path d="m0 172v-172h172v172z" fill="none"/><g fill="#5865f2"><path d="m85.946 10.273c-1.8972 0.02966-3.4122 1.5898-3.3862 3.487v24.08c-0.01754 1.2406 0.63425 2.3945 1.7058 3.0199s2.3968 0.62541 3.4684 0 1.7234-1.7794 1.7058-3.0199v-24.08c0.01273-0.92983-0.35149-1.8252-1.0097-2.4821-0.65819-0.65692-1.5543-1.0194-2.4841-1.0049zm-36.221 9.6817c-1.2133 0.04683-2.312 0.72975-2.8912 1.7969-0.5791 1.0672-0.55277 2.3606 0.06927 3.4034l12.04 20.855c0.57845 1.1312 1.7333 1.8516 3.0037 1.8735 1.2704 0.02195 2.4494-0.65807 3.0666-1.7687 0.61718-1.1106 0.57201-2.471-0.1175-3.5382l-12.04-20.862c-0.63019-1.1282-1.8395-1.8082-3.1309-1.7603zm72.448 0c-1.2556-0.01016-2.417 0.66454-3.0302 1.7603l-12.04 20.862c-0.68951 1.0672-0.73468 2.4276-0.1175 3.5382s1.7962 1.7906 3.0666 1.7687 2.4252-0.74229 3.0037-1.8735l12.04-20.855c0.63002-1.0581 0.64648-2.3722 0.04315-3.4457s-1.7344-1.7427-2.9658-1.7546zm-98.651 26.458c-0.11426-0.00345-0.22862-0.00121-0.34266 0.00672-1.5232 0.09502-2.8018 1.1822-3.1404 2.6703s0.3436 3.0215 1.6757 3.7662l20.862 12.04c1.0672 0.68951 2.4276 0.73468 3.5382 0.1175s1.7906-1.7962 1.7687-3.0666-0.74229-2.4252-1.8735-3.0037l-20.855-12.04c-0.49445-0.29787-1.0559-0.46654-1.6327-0.49047zm125.19 0.00672c-0.656-0.02021-1.3041 0.14764-1.8678 0.48375l-20.855 12.04c-1.1312 0.57845-1.8516 1.7333-1.8735 3.0037-0.02195 1.2704 0.65807 2.4494 1.7687 3.0666 1.1106 0.61718 2.471 0.57201 3.5382-0.1175l20.862-12.04c1.3445-0.75665 2.0208-2.3158 1.6548-3.8145s-1.685-2.5704-3.2269-2.6221zm-134.95 36.14c-1.2406-0.01754-2.3945 0.63425-3.0199 1.7058s-0.62541 2.3968 0 3.4684 1.7794 1.7234 3.0199 1.7058h24.08c1.2406 0.01754 2.3945-0.63425 3.0199-1.7058s0.62541-2.3968 0-3.4684-1.7794-1.7234-3.0199-1.7058zm120.4 0c-1.2406-0.01754-2.3945 0.63425-3.0199 1.7058s-0.62541 2.3968 0 3.4684 1.7794 1.7234 3.0199 1.7058h24.08c1.2406 0.01754 2.3945-0.63425 3.0199-1.7058s0.62541-2.3968 0-3.4684-1.7794-1.7234-3.0199-1.7058zm-6.3694 24.053c-0.11426-0.00345-0.22862-0.00121-0.34266 0.00672-1.5221 0.09763-2.7982 1.1857-3.1351 2.6733s0.34572 3.0193 1.6772 3.7633l20.855 12.04c1.0665 0.67404 2.4164 0.71025 3.5175 0.09435 1.1011-0.6159 1.7768-1.7851 1.7606-3.0466-0.01617-1.2616-0.72156-2.413-1.8381-3.0005l-20.862-12.04c-0.49445-0.29787-1.0559-0.46654-1.6326-0.49047zm-83.346 0.00672c-0.656-0.02021-1.3041 0.14764-1.8678 0.48375l-20.862 12.04c-1.1165 0.58748-1.8219 1.739-1.8381 3.0005-0.01617 1.2616 0.65948 2.4307 1.7606 3.0466 1.1011 0.6159 2.451 0.57969 3.5175-0.09435l20.855-12.04c1.3436-0.75594 2.0203-2.3134 1.6559-3.8114-0.36433-1.498-1.6807-2.5707-3.2214-2.6252zm17.529 17.603c-1.257-0.00881-2.4188 0.66867-3.0302 1.767l-12.04 20.855c-0.67404 1.0665-0.71025 2.4164-0.09435 3.5175 0.6159 1.1011 1.7851 1.7768 3.0466 1.7606 1.2616-0.01617 2.413-0.72156 3.0005-1.8381l12.04-20.862c0.63002-1.0581 0.64648-2.3722 0.04315-3.4457s-1.7344-1.7427-2.9658-1.7546zm47.952 0.00672c-1.2112 0.04813-2.3077 0.73008-2.8864 1.7952s-0.5542 2.3561 0.06448 3.3984l12.04 20.862c0.58748 1.1165 1.739 1.8219 3.0005 1.8381 1.2616 0.01617 2.4307-0.65948 3.0466-1.7606 0.6159-1.1011 0.57969-2.451-0.09435-3.5175l-12.04-20.855c-0.63019-1.1282-1.8395-1.8082-3.1309-1.7603zm-23.979 6.4433c-1.8972 0.02966-3.4122 1.5898-3.3862 3.487v24.08c-0.01754 1.2406 0.63425 2.3945 1.7058 3.0199s2.3968 0.62541 3.4684 0 1.7234-1.7794 1.7058-3.0199v-24.08c0.01273-0.92983-0.35149-1.8252-1.0097-2.4821-0.65819-0.65692-1.5543-1.0194-2.4841-1.0049z"/></g></g></svg>
