<?xml version="1.0" encoding="UTF-8"?><svg version="1.1" viewBox="0 0 275 238" xmlns="http://www.w3.org/2000/svg"><g fill="none" fill-rule="evenodd"><g transform="translate(-119 -137)"><g transform="translate(119 137)"><path d="m181.47 154.8 82.752 82.574h-254.29l82.75-82.574 44.395 40.65 44.394-40.65zm91.246-83.549v157.65l-70.338-70.188 46.49-65.623 23.848-21.836zm-271.28-9e-4 23.847 21.835 46.49 65.625-70.337 70.187v-157.65zm262.4-8.1343-82.004 75.086-0.188-0.187-4.143 4.153-40.42 37.01-40.423-37.014-4.141-4.149-0.187 0.187-82.003-75.086h253.51z" fill="#fff"/><path d="m238.4 102.67-38.178 53.891-9.895-9.874 48.073-44.017zm-202.65-1e-3 48.074 44.018-9.895 9.873-38.179-53.891zm196.2-102.67c23.31 0 42.2 18.89 42.2 42.2 0 3.06-0.33 6.05-0.95 8.92h-37.25c3.8-5.73 6.01-12.6 6.01-19.99 0-12.86-6.7-24.15-16.79-30.58 2.21-0.36 4.469-0.55 6.78-0.55zm-189.75 4e-4c2.31 0 4.57 0.19 6.78 0.55-10.09 6.43-16.79 17.72-16.79 30.58 0 7.39 2.21 14.26 6.01 19.989h-37.25c-0.62-2.869-0.95-5.859-0.95-8.92 0-23.309 18.89-42.199 42.2-42.199z" fill="#5865f2" fill-rule="nonzero"/></g></g></g></svg>
