<?xml version="1.0" encoding="UTF-8"?>
<svg width="275px" height="238px" viewBox="0 0 275 238" version="1.1" xmlns="http://www.w3.org/2000/svg" xmlns:xlink="http://www.w3.org/1999/xlink">
    <title>demon</title>
    <desc>Created with Sketch.</desc>
    <g id="Page-1" stroke="none" stroke-width="1" fill="none" fill-rule="evenodd">
        <g id="icon" transform="translate(-119.000000, -137.000000)">
            <g id="Group">
                <g id="demon" transform="translate(119.000000, 137.000000)">
                    <path d="M181.4687,154.8029 L264.2207,237.3769 L9.9297,237.3769 L92.6797,154.8029 L137.0747,195.4529 L181.4687,154.8029 Z M272.7148,71.2543 L272.7148,228.9013 L202.3768,158.7133 L248.8668,93.0903 L272.7148,71.2543 Z M1.4343,71.2534 L25.2813,93.0884 L71.7713,158.7134 L1.4343,228.9004 L1.4343,71.2534 Z M263.8294,63.1191 L181.8254,138.2051 L181.6374,138.0181 L177.4944,142.1711 L137.0744,179.1811 L96.6514,142.1671 L92.5104,138.0181 L92.3234,138.2051 L10.3204,63.1191 L263.8294,63.1191 Z" id="msg" fill="#FFFFFF"></path>
                    <path d="M238.4012,102.673 L200.2232,156.564 L190.3282,146.69 L238.4012,102.673 Z M35.7469,102.672 L83.8209,146.69 L73.9259,156.563 L35.7469,102.672 Z M231.9488,0 C255.2588,0 274.1488,18.89 274.1488,42.2 C274.1488,45.26 273.8188,48.25 273.1988,51.12 L273.1988,51.12 L235.9488,51.12 C239.7488,45.39 241.9588,38.52 241.9588,31.13 C241.9588,18.27 235.2588,6.98 225.1688,0.55 C227.3788,0.19 229.6378,0 231.9488,0 Z M42.2,0.0004 C44.51,0.0004 46.77,0.1904 48.98,0.5504 C38.89,6.9804 32.19,18.2704 32.19,31.1304 C32.19,38.5204 34.4,45.3904 38.2,51.1194 L38.2,51.1194 L0.95,51.1194 C0.33,48.2504 2.13162821e-14,45.2604 2.13162821e-14,42.1994 C2.13162821e-14,18.8904 18.89,0.0004 42.2,0.0004 Z" id="vuln" fill="#5865f2" fill-rule="nonzero"></path>
                </g>
            </g>
        </g>
    </g>
</svg>
