<svg version="1.1" xmlns="http://www.w3.org/2000/svg" xmlns:xlink="http://www.w3.org/1999/xlink" viewBox="0 0 172 172"><g fill="none" fill-rule="nonzero" stroke="none" stroke-width="1" stroke-linecap="butt" stroke-linejoin="miter" stroke-miterlimit="10" stroke-dasharray="" stroke-dashoffset="0" font-family="none" font-weight="none" font-size="none" text-anchor="none" style="mix-blend-mode: normal"><path d="M0,172v-172h172v172z" fill="none"></path><g fill="#5865f2"><path d="M85.94625,10.27297c-1.89722,0.02966 -3.41223,1.58976 -3.38625,3.48703v24.08c-0.01754,1.24059 0.63425,2.39452 1.7058,3.01993c1.07155,0.62541 2.39684,0.62541 3.46839,0c1.07155,-0.62541 1.72335,-1.77935 1.7058,-3.01993v-24.08c0.01273,-0.92983 -0.35149,-1.82522 -1.00967,-2.48214c-0.65819,-0.65692 -1.55427,-1.01942 -2.48408,-1.00489zM49.72547,19.95469c-1.21329,0.04683 -2.31205,0.72975 -2.89115,1.79694c-0.5791,1.0672 -0.55277,2.36062 0.06927,3.40337l12.04,20.855c0.57845,1.13125 1.73332,1.85159 3.00369,1.87354c1.27038,0.02195 2.44943,-0.65807 3.06662,-1.76867c0.61718,-1.1106 0.57201,-2.47095 -0.1175,-3.53815l-12.04,-20.86172c-0.63019,-1.12824 -1.83951,-1.80816 -3.13094,-1.76031zM122.17375,19.95469c-1.25561,-0.01016 -2.41702,0.66454 -3.03015,1.76031l-12.04,20.86172c-0.68951,1.0672 -0.73468,2.42755 -0.1175,3.53815c0.61718,1.1106 1.79624,1.79062 3.06662,1.76867c1.27038,-0.02195 2.42524,-0.74229 3.00369,-1.87354l12.04,-20.855c0.63002,-1.05807 0.64648,-2.37218 0.04315,-3.44569c-0.60333,-1.07351 -1.73442,-1.74269 -2.9658,-1.75462zM23.52234,46.41313c-0.11426,-0.00345 -0.22862,-0.00121 -0.34266,0.00672c-1.52321,0.09502 -2.80176,1.18218 -3.1404,2.67031c-0.33864,1.48813 0.3436,3.02148 1.67571,3.76625l20.86172,12.04c1.0672,0.68951 2.42755,0.73468 3.53815,0.1175c1.1106,-0.61718 1.79062,-1.79624 1.76867,-3.06662c-0.02195,-1.27038 -0.74229,-2.42524 -1.87354,-3.00369l-20.855,-12.04c-0.49445,-0.29787 -1.05591,-0.46654 -1.63266,-0.49047zM148.71281,46.41985c-0.656,-0.02021 -1.3041,0.14764 -1.86781,0.48375l-20.855,12.04c-1.13125,0.57845 -1.85159,1.73332 -1.87354,3.00369c-0.02195,1.27038 0.65807,2.44943 1.76867,3.06662c1.1106,0.61718 2.47095,0.57201 3.53815,-0.1175l20.86172,-12.04c1.34446,-0.75665 2.02082,-2.31579 1.65475,-3.81448c-0.36607,-1.49869 -1.68505,-2.57045 -3.22694,-2.62208zM13.76,82.56c-1.24059,-0.01754 -2.39452,0.63425 -3.01993,1.7058c-0.62541,1.07155 -0.62541,2.39684 0,3.46839c0.62541,1.07155 1.77935,1.72335 3.01993,1.7058h24.08c1.24059,0.01754 2.39452,-0.63425 3.01993,-1.7058c0.62541,-1.07155 0.62541,-2.39684 0,-3.46839c-0.62541,-1.07155 -1.77935,-1.72335 -3.01993,-1.7058zM134.16,82.56c-1.24059,-0.01754 -2.39452,0.63425 -3.01993,1.7058c-0.62541,1.07155 -0.62541,2.39684 0,3.46839c0.62541,1.07155 1.77935,1.72335 3.01993,1.7058h24.08c1.24059,0.01754 2.39452,-0.63425 3.01993,-1.7058c0.62541,-1.07155 0.62541,-2.39684 0,-3.46839c-0.62541,-1.07155 -1.77935,-1.72335 -3.01993,-1.7058zM127.79063,106.61313c-0.11426,-0.00345 -0.22862,-0.00121 -0.34266,0.00672c-1.52207,0.09763 -2.79818,1.18574 -3.13512,2.67326c-0.33694,1.48752 0.34572,3.01931 1.67715,3.7633l20.855,12.04c1.0665,0.67404 2.41639,0.71025 3.5175,0.09435c1.1011,-0.6159 1.77675,-1.78509 1.76059,-3.04664c-0.01617,-1.26155 -0.72156,-2.41304 -1.83808,-3.00052l-20.86172,-12.04c-0.49445,-0.29787 -1.05591,-0.46654 -1.63265,-0.49047zM44.44453,106.61985c-0.656,-0.02021 -1.3041,0.14764 -1.86781,0.48375l-20.86172,12.04c-1.11652,0.58748 -1.82192,1.73898 -1.83808,3.00052c-0.01617,1.26155 0.65948,2.43074 1.76059,3.04664c1.1011,0.6159 2.45099,0.57969 3.5175,-0.09435l20.855,-12.04c1.3436,-0.75594 2.02028,-2.31341 1.65594,-3.8114c-0.36433,-1.49799 -1.68071,-2.57072 -3.22141,-2.62516zM61.97375,124.22297c-1.25702,-0.00881 -2.41878,0.66867 -3.03015,1.76703l-12.04,20.855c-0.67404,1.0665 -0.71025,2.41639 -0.09435,3.5175c0.6159,1.1011 1.78509,1.77675 3.04664,1.76059c1.26155,-0.01617 2.41304,-0.72156 3.00052,-1.83808l12.04,-20.86172c0.63002,-1.05807 0.64648,-2.37218 0.04315,-3.44569c-0.60333,-1.07351 -1.73442,-1.74269 -2.9658,-1.75462zM109.92547,124.22969c-1.21118,0.04813 -2.30766,0.73008 -2.88635,1.79515c-0.57869,1.06507 -0.5542,2.35609 0.06448,3.39844l12.04,20.86172c0.58748,1.11652 1.73898,1.82192 3.00052,1.83808c1.26155,0.01617 2.43074,-0.65948 3.04664,-1.76059c0.6159,-1.1011 0.57969,-2.45099 -0.09435,-3.5175l-12.04,-20.855c-0.63019,-1.12824 -1.83951,-1.80816 -3.13094,-1.76031zM85.94625,130.67297c-1.89722,0.02966 -3.41223,1.58976 -3.38625,3.48703v24.08c-0.01754,1.24059 0.63425,2.39452 1.7058,3.01993c1.07155,0.62541 2.39684,0.62541 3.46839,0c1.07155,-0.62541 1.72335,-1.77935 1.7058,-3.01993v-24.08c0.01273,-0.92983 -0.35149,-1.82522 -1.00967,-2.48214c-0.65819,-0.65692 -1.55427,-1.01942 -2.48408,-1.00489z"></path></g></g></svg>