<?xml version="1.0" encoding="UTF-8"?><svg version="1.1" viewBox="0 0 172 172" xmlns="http://www.w3.org/2000/svg"><g font-family="none" font-size="none" font-weight="none" stroke-dasharray="" stroke-miterlimit="10" text-anchor="none" style="mix-blend-mode:normal"><path d="m0 172v-172h172v172z" fill="none"/><g fill="#fff"><path d="m31.889 0c-13.722 0-24.889 11.214-24.889 24.994v122.01c0 13.78 11.167 24.994 24.889 24.994h52.989c13.722 0 24.889-11.211 24.889-24.988v-43.812c0-1.5824-1.2789-2.8667-2.8546-2.8667-1.5757 0-2.8546 1.2843-2.8546 2.8667v43.806c0 10.618-8.6004 19.26-19.174 19.26h-52.994c-10.573 0-19.179-8.6423-19.179-19.26v-122.01c0-10.618 8.6059-19.26 19.179-19.26h52.989c10.576 0 19.179 8.6423 19.179 19.26v43.806c0 1.5824 1.2789 2.8667 2.8546 2.8667 1.5757 0 2.8546-1.2843 2.8546-2.8667v-43.806c0-13.78-11.164-24.994-24.883-24.994zm100.71 54.467c-0.73078 0-1.4616 0.27941-2.0183 0.83984-1.1162 1.1209-1.1162 2.9328 0 4.0536l23.673 23.773h-90.165c-1.5757 0-2.8546 1.2843-2.8546 2.8667s1.2789 2.8667 2.8546 2.8667h90.165l-23.673 23.773c-1.1162 1.1209-1.1162 2.9328 0 4.0536 0.55665 0.559 1.2875 0.83984 2.0183 0.83984 0.73078 0 1.4616-0.28084 2.0183-0.83984l28.546-28.667c0.26084-0.26194 0.46865-0.57693 0.61329-0.92383 0.29291-0.70472 0.29291-1.5013 0-2.206-0.14465-0.3469-0.35246-0.66189-0.61329-0.92383l-28.546-28.667c-0.55665-0.56043-1.2875-0.83984-2.0183-0.83984z"/></g></g></svg>
