<svg version="1.1" xmlns="http://www.w3.org/2000/svg" xmlns:xlink="http://www.w3.org/1999/xlink" viewBox="0 0 172 172"><g fill="none" fill-rule="nonzero" stroke="none" stroke-width="1" stroke-linecap="butt" stroke-linejoin="miter" stroke-miterlimit="10" stroke-dasharray="" stroke-dashoffset="0" font-family="none" font-weight="none" font-size="none" text-anchor="none" style="mix-blend-mode: normal"><path d="M0,172v-172h172v172z" fill="none"></path><g fill="#ffffff"><path d="M31.8886,0c-13.72209,0 -24.8886,11.21368 -24.8886,24.99375v122.0125c0,13.78007 11.16651,24.99375 24.8886,24.99375h52.98862c13.72209,0 24.8886,-11.21095 24.8886,-24.98815v-43.81185c0,-1.5824 -1.27886,-2.86667 -2.85461,-2.86667c-1.57574,0 -2.85461,1.28427 -2.85461,2.86667v43.80625c0,10.61813 -8.60035,19.26042 -19.17381,19.26042h-52.9942c-10.57346,0 -19.17938,-8.64228 -19.17938,-19.26042v-122.0125c0,-10.61813 8.60592,-19.26042 19.17938,-19.26042h52.98862c10.57632,0 19.17938,8.64228 19.17938,19.26042v43.80625c0,1.5824 1.27886,2.86667 2.85461,2.86667c1.57574,0 2.85461,-1.28427 2.85461,-2.86667v-43.80625c0,-13.78007 -11.16378,-24.99375 -24.88302,-24.99375zM132.60267,54.46667c-0.73078,0 -1.46165,0.27941 -2.01829,0.83984c-1.11615,1.12087 -1.11615,2.93278 0,4.05364l23.67316,23.77318h-90.16541c-1.57574,0 -2.85461,1.28427 -2.85461,2.86667c0,1.5824 1.27886,2.86667 2.85461,2.86667h90.16541l-23.67316,23.77318c-1.11615,1.12087 -1.11615,2.93278 0,4.05364c0.55665,0.559 1.28752,0.83984 2.01829,0.83984c0.73078,0 1.46165,-0.28084 2.01829,-0.83984l28.54606,-28.66667c0.26084,-0.26194 0.46865,-0.57693 0.61329,-0.92383c0.29291,-0.70472 0.29291,-1.50128 0,-2.20599c-0.14465,-0.3469 -0.35246,-0.66189 -0.61329,-0.92383l-28.54606,-28.66667c-0.55665,-0.56043 -1.28752,-0.83984 -2.01829,-0.83984z"></path></g></g></svg>