<?xml version="1.0" encoding="UTF-8"?><svg version="1.1" viewBox="0 0 172 172" xmlns="http://www.w3.org/2000/svg"><g font-family="none" font-size="none" font-weight="none" stroke-dasharray="" stroke-miterlimit="10" text-anchor="none" style="mix-blend-mode:normal"><path d="m0 172v-172h172v172z" fill="none"/><g fill="#5865f2"><path d="m86 14.333c-39.517 0-71.667 32.15-71.667 71.667s32.15 71.667 71.667 71.667 71.667-32.15 71.667-71.667-32.15-71.667-71.667-71.667zm0 14.333c31.612 0 57.333 25.721 57.333 57.333 0 31.612-25.721 57.333-57.333 57.333-31.612 0-57.333-25.721-57.333-57.333 0-31.612 25.721-57.333 57.333-57.333zm0 14.333c-23.714 0-43 19.286-43 43s19.286 43 43 43h7.1667v-14.333h-7.1667c-15.81 0-28.667-12.857-28.667-28.667s12.857-28.667 28.667-28.667 28.667 12.857 28.667 28.667v3.5833c0 1.978-1.6053 3.5833-3.5833 3.5833s-3.5833-1.6053-3.5833-3.5833h-0.36393c0.19869-1.1721 0.36393-2.3556 0.36393-3.5833 0-11.854-9.6463-21.5-21.5-21.5s-21.5 9.6463-21.5 21.5 9.6463 21.5 21.5 21.5c4.9843 0 9.5209-1.7751 13.172-4.6331 3.1737 2.8488 7.3237 4.6331 11.912 4.6331 9.8757 0 17.917-8.041 17.917-17.917v-3.5833c0-23.714-19.286-43-43-43zm0 35.833c3.9488 0 7.1667 3.2178 7.1667 7.1667 0 3.9488-3.2178 7.1667-7.1667 7.1667-3.9488 0-7.1667-3.2178-7.1667-7.1667 0-3.9488 3.2178-7.1667 7.1667-7.1667z"/></g></g></svg>
