<svg version="1.1" xmlns="http://www.w3.org/2000/svg" xmlns:xlink="http://www.w3.org/1999/xlink" viewBox="0 0 172 172"><g fill="none" fill-rule="nonzero" stroke="none" stroke-width="1" stroke-linecap="butt" stroke-linejoin="miter" stroke-miterlimit="10" stroke-dasharray="" stroke-dashoffset="0" font-family="none" font-weight="none" font-size="none" text-anchor="none" style="mix-blend-mode: normal"><path d="M0,172v-172h172v172z" fill="none"></path><g fill="#5865f2"><path d="M86,14.33333c-39.517,0 -71.66667,32.14967 -71.66667,71.66667c0,39.517 32.14967,71.66667 71.66667,71.66667c39.517,0 71.66667,-32.14967 71.66667,-71.66667c0,-39.517 -32.14967,-71.66667 -71.66667,-71.66667zM86,28.66667c31.61217,0 57.33333,25.72117 57.33333,57.33333c0,31.61217 -25.72117,57.33333 -57.33333,57.33333c-31.61217,0 -57.33333,-25.72117 -57.33333,-57.33333c0,-31.61217 25.72117,-57.33333 57.33333,-57.33333zM86,43c-23.7145,0 -43,19.2855 -43,43c0,23.7145 19.2855,43 43,43h7.16667v-14.33333h-7.16667c-15.80967,0 -28.66667,-12.857 -28.66667,-28.66667c0,-15.80967 12.857,-28.66667 28.66667,-28.66667c15.80967,0 28.66667,12.857 28.66667,28.66667v3.58333c0,1.978 -1.60533,3.58333 -3.58333,3.58333c-1.978,0 -3.58333,-1.60533 -3.58333,-3.58333h-0.36393c0.19869,-1.17209 0.36393,-2.35562 0.36393,-3.58333c0,-11.85367 -9.64633,-21.5 -21.5,-21.5c-11.85367,0 -21.5,9.64633 -21.5,21.5c0,11.85367 9.64633,21.5 21.5,21.5c4.98428,0 9.52086,-1.7751 13.17155,-4.63314c3.17374,2.84875 7.32372,4.63314 11.91178,4.63314c9.87567,0 17.91667,-8.041 17.91667,-17.91667v-3.58333c0,-23.7145 -19.2855,-43 -43,-43zM86,78.83333c3.94883,0 7.16667,3.21783 7.16667,7.16667c0,3.94883 -3.21783,7.16667 -7.16667,7.16667c-3.94883,0 -7.16667,-3.21783 -7.16667,-7.16667c0,-3.94883 3.21783,-7.16667 7.16667,-7.16667z"></path></g></g></svg>